<svg width="3240" height="1547" viewBox="0 0 3240 1547" fill="none" xmlns="http://www.w3.org/2000/svg">
<g clip-path="url(#clip0_1_2)">
<rect width="3240" height="1547" fill="#9F8A28"/>
<path d="M1411.5 538.719C1175.23 395.724 855 2 855 2H3240V396.324C3240 396.324 2600.7 717.333 2180 713.974L2175.79 713.94C1875.36 711.545 1694.68 710.105 1411.5 538.719Z" fill="#A78E1A"/>
<path d="M1793.67 366.848C1607.43 269.644 1355 2 1355 2H3235V270.052C3235 270.052 2731.06 488.266 2399.44 485.982L2396.13 485.959C2159.31 484.331 2016.88 483.352 1793.67 366.848Z" fill="#BEA42A"/>
<path d="M652.596 345.702C395.514 306.51 0 591.422 0 591.422V1547H2863C2863 1547 2428.22 979.212 2126.2 837.142C1818.81 692.547 1635.31 955.268 1326.24 837.142C1055.88 733.808 925.407 387.292 652.596 345.702Z" fill="#95801E"/>
<path d="M488.478 744.473C296.048 718.291 0 908.626 0 908.626V1547H2143C2143 1547 1817.56 1167.69 1591.49 1072.78C1361.41 976.183 1224.05 1151.69 992.713 1072.78C790.342 1003.75 692.682 772.257 488.478 744.473Z" fill="#917B15"/>
<path d="M376.331 1099.38C228.08 1084.78 0 1190.94 0 1190.94V1547H1651C1651 1547 1400.28 1335.43 1226.11 1282.5C1048.85 1228.62 943.029 1326.51 764.801 1282.5C608.892 1243.99 533.653 1114.88 376.331 1099.38Z" fill="#867319"/>
<path d="M248 1370.54C150.303 1364.8 0 1406.54 0 1406.54V1546.54H1088C1088 1546.54 922.774 1463.36 808 1442.54C691.186 1421.36 621.451 1459.85 504 1442.54C401.256 1427.4 351.674 1376.64 248 1370.54Z" fill="#7E6D1C"/>
<g filter="url(#filter0_f_1_2)">
<path d="M2131 198C1988.35 145.781 1795 2 1795 2H3235V146C3235 146 2849 263.227 2595 262L2592.46 261.988C2411.07 261.113 2301.98 260.587 2131 198Z" fill="#CFB53C"/>
</g>
</g>
<defs>
<filter id="filter0_f_1_2" x="1791" y="-2" width="1448" height="268.01" filterUnits="userSpaceOnUse" color-interpolation-filters="sRGB">
<feFlood flood-opacity="0" result="BackgroundImageFix"/>
<feBlend mode="normal" in="SourceGraphic" in2="BackgroundImageFix" result="shape"/>
<feGaussianBlur stdDeviation="2" result="effect1_foregroundBlur_1_2"/>
</filter>
<clipPath id="clip0_1_2">
<rect width="3240" height="1547" fill="white"/>
</clipPath>
</defs>
</svg>
