<svg width="2000" height="1200" viewBox="0 0 2000 1200" fill="none" xmlns="http://www.w3.org/2000/svg">
<g clip-path="url(#clip0_1_3)">
<rect width="2000" height="1200" fill="black"/>
<g filter="url(#filter0_f_1_3)">
<ellipse cx="999.5" cy="599.5" rx="448.5" ry="237.5" fill="#CFB53D"/>
</g>
<path d="M1740.06 -111.383L1894.14 -20.4759V161.339L1740.06 252.246L1585.98 161.339V-20.4759L1740.06 -111.383Z" stroke="#CFB53C" stroke-opacity="0.4"/>
<path d="M2069.8 -111.383L2223.88 -20.4759V161.339L2069.8 252.246L1915.72 161.339V-20.4759L2069.8 -111.383Z" stroke="#CFB53C" stroke-opacity="0.4"/>
<path d="M100.864 -111.383L254.943 -20.4759V161.339L100.864 252.246L-53.2162 161.339V-20.4759L100.864 -111.383Z" stroke="#CFB53C" stroke-opacity="0.4"/>
<path d="M428.229 -111.383L582.309 -20.4759V161.339L428.229 252.246L274.15 161.339V-20.4759L428.229 -111.383Z" stroke="#CFB53C" stroke-opacity="0.4"/>
<path d="M757.967 -111.383L912.047 -20.4759V161.339L757.967 252.246L603.887 161.339V-20.4759L757.967 -111.383Z" stroke="#CFB53C" stroke-opacity="0.4"/>
<path d="M1085.33 -111.383L1239.41 -20.4759V161.339L1085.33 252.246L931.253 161.339V-20.4759L1085.33 -111.383Z" stroke="#CFB53C" stroke-opacity="0.4"/>
<path d="M1412.7 -111.383L1566.78 -20.4759V161.339L1412.7 252.246L1258.62 161.339V-20.4759L1412.7 -111.383Z" stroke="#CFB53C" stroke-opacity="0.4"/>
<path d="M1915.61 155.278L2069.69 246.186V428.001L1915.61 518.908L1761.53 428.001V246.186L1915.61 155.278Z" stroke="#CFB53C" stroke-opacity="0.4"/>
<path d="M-50.9582 155.278L103.122 246.186V428.001L-50.9582 518.908L-205.038 428.001V246.186L-50.9582 155.278Z" stroke="#CFB53C" stroke-opacity="0.4"/>
<path d="M276.407 155.278L430.487 246.186V428.001L276.407 518.908L122.328 428.001V246.186L276.407 155.278Z" stroke="#CFB53C" stroke-opacity="0.4"/>
<path d="M603.773 155.278L757.853 246.186V428.001L603.773 518.908L449.693 428.001V246.186L603.773 155.278Z" stroke="#CFB53C" stroke-opacity="0.4"/>
<path d="M933.511 155.278L1087.59 246.186V428.001L933.511 518.908L779.431 428.001V246.186L933.511 155.278Z" stroke="#CFB53C" stroke-opacity="0.4"/>
<path d="M1260.88 155.278L1414.96 246.186V428.001L1260.88 518.908L1106.8 428.001V246.186L1260.88 155.278Z" stroke="#CFB53C" stroke-opacity="0.4"/>
<path d="M1588.24 155.278L1742.32 246.186V428.001L1588.24 518.908L1434.16 428.001V246.186L1588.24 155.278Z" stroke="#CFB53C" stroke-opacity="0.4"/>
<path d="M1740.06 426.789L1894.14 517.696V699.511L1740.06 790.418L1585.98 699.511V517.696L1740.06 426.789Z" stroke="#CFB53C" stroke-opacity="0.4"/>
<path d="M2069.8 426.789L2223.88 517.696V699.511L2069.8 790.418L1915.72 699.511V517.696L2069.8 426.789Z" stroke="#CFB53C" stroke-opacity="0.4"/>
<path d="M100.864 426.789L254.943 517.696V699.511L100.864 790.418L-53.2162 699.511V517.696L100.864 426.789Z" stroke="#CFB53C" stroke-opacity="0.4"/>
<path d="M428.229 426.789L582.309 517.696V699.511L428.229 790.418L274.15 699.511V517.696L428.229 426.789Z" stroke="#CFB53C" stroke-opacity="0.4"/>
<path d="M757.967 426.789L912.047 517.696V699.511L757.967 790.418L603.887 699.511V517.696L757.967 426.789Z" stroke="#CFB53C" stroke-opacity="0.4"/>
<path d="M1085.33 426.789L1239.41 517.696V699.511L1085.33 790.418L931.253 699.511V517.696L1085.33 426.789Z" stroke="#CFB53C" stroke-opacity="0.4"/>
<path d="M1412.7 426.789L1566.78 517.696V699.511L1412.7 790.418L1258.62 699.511V517.696L1412.7 426.789Z" stroke="#CFB53C" stroke-opacity="0.4"/>
<path d="M1915.61 693.45L2069.69 784.358V966.173L1915.61 1057.08L1761.53 966.173V784.358L1915.61 693.45Z" stroke="#CFB53C" stroke-opacity="0.4"/>
<path d="M-50.9582 693.45L103.122 784.358V966.173L-50.9582 1057.08L-205.038 966.173V784.358L-50.9582 693.45Z" stroke="#CFB53C" stroke-opacity="0.4"/>
<path d="M276.407 693.45L430.487 784.358V966.173L276.407 1057.08L122.328 966.173V784.358L276.407 693.45Z" stroke="#CFB53C" stroke-opacity="0.4"/>
<path d="M603.773 693.45L757.853 784.358V966.173L603.773 1057.08L449.693 966.173V784.358L603.773 693.45Z" stroke="#CFB53C" stroke-opacity="0.4"/>
<path d="M933.511 693.45L1087.59 784.358V966.173L933.511 1057.08L779.431 966.173V784.358L933.511 693.45Z" stroke="#CFB53C" stroke-opacity="0.4"/>
<path d="M1260.88 693.45L1414.96 784.358V966.173L1260.88 1057.08L1106.8 966.173V784.358L1260.88 693.45Z" stroke="#CFB53C" stroke-opacity="0.4"/>
<path d="M1588.24 693.45L1742.32 784.358V966.173L1588.24 1057.08L1434.16 966.173V784.358L1588.24 693.45Z" stroke="#CFB53C" stroke-opacity="0.4"/>
<path d="M1434.05 962.536L1588.13 1053.44V1235.26L1434.05 1326.17L1279.97 1235.26V1053.44L1434.05 962.536Z" stroke="#CFB53C" stroke-opacity="0.4"/>
<path d="M1763.79 962.536L1917.87 1053.44V1235.26L1763.79 1326.17L1609.71 1235.26V1053.44L1763.79 962.536Z" stroke="#CFB53C" stroke-opacity="0.4"/>
<path d="M2093.52 962.536L2247.6 1053.44V1235.26L2093.52 1326.17L1939.44 1235.26V1053.44L2093.52 962.536Z" stroke="#CFB53C" stroke-opacity="0.4"/>
<path d="M122.214 962.536L276.293 1053.44V1235.26L122.214 1326.17L-31.8663 1235.26V1053.44L122.214 962.536Z" stroke="#CFB53C" stroke-opacity="0.4"/>
<path d="M451.952 962.536L606.031 1053.44V1235.26L451.952 1326.17L297.872 1235.26V1053.44L451.952 962.536Z" stroke="#CFB53C" stroke-opacity="0.4"/>
<path d="M779.317 962.536L933.397 1053.44V1235.26L779.317 1326.17L625.237 1235.26V1053.44L779.317 962.536Z" stroke="#CFB53C" stroke-opacity="0.4"/>
<path d="M1106.68 962.536L1260.76 1053.44V1235.26L1106.68 1326.17L952.603 1235.26V1053.44L1106.68 962.536Z" stroke="#CFB53C" stroke-opacity="0.4"/>
</g>
<defs>
<filter id="filter0_f_1_3" x="-449" y="-638" width="2897" height="2475" filterUnits="userSpaceOnUse" color-interpolation-filters="sRGB">
<feFlood flood-opacity="0" result="BackgroundImageFix"/>
<feBlend mode="normal" in="SourceGraphic" in2="BackgroundImageFix" result="shape"/>
<feGaussianBlur stdDeviation="500" result="effect1_foregroundBlur_1_3"/>
</filter>
<clipPath id="clip0_1_3">
<rect width="2000" height="1200" fill="white"/>
</clipPath>
</defs>
</svg>
